<?xml version="1.0" encoding="UTF-8"?>
<svg id="Layer_2" data-name="Layer 2" xmlns="http://www.w3.org/2000/svg" viewBox="0 0 760.24 836.06">
  <defs>
    <style>
      .cls-1 {
        fill: #ffffff;
        stroke-width: 0px;
      }
    </style>
  </defs>
  <g id="Layer_1-2" data-name="Layer 1">
    <path class="cls-1" d="M647.45,325.77c0,2.45,0,4.25,0,6.04-.02,33.16.7,66.34-.22,99.48-2.15,77.81-24.37,149.04-72.4,211.17-29.39,38.02-65.9,68.05-106.68,93.11-27.2,16.72-55.93,30.14-86.17,40.33-2.15.73-5.01.74-7.14-.02-63.85-22.79-120.63-57.03-167.81-105.99-41.33-42.89-69.43-93.55-85.08-151.13-9.56-35.16-12.5-71-12.37-107.25.1-27.33-.05-54.66-.08-81.98,0-.98.09-1.96.15-3.13.87-.23,1.64-.65,2.4-.62,46.88,2.05,91.38-9.23,135.36-23.79,19.73-6.53,39.43-13.43,59.6-18.26,14.41-3.45,29.55-4.64,44.43-5.21,21.46-.82,42.99.05,64.48-.21,24.2-.29,46.98,6.13,69.68,13.51,27.04,8.79,54.09,17.6,81.37,25.57,24.14,7.05,49.06,8.86,74.15,8.37,1.95-.04,3.9,0,6.35,0ZM125.34,341.89c0,25.07.12,49.55-.03,74.04-.2,33.09,2.86,65.77,10.96,97.95,12.39,49.25,34.38,93.65,67.47,132.18,46.34,53.96,104.83,90.25,170.83,115.19,2.51.95,5.96.89,8.53,0,50.52-17.43,95.73-44.2,135.98-79.14,73.17-63.52,108.61-145.27,113.68-240.87,1.59-30.09.61-60.31.8-90.47.02-2.93,0-5.85,0-8.89H125.34ZM715.85,181.59c-.54-2.01-.65-3.35-1.23-4.44-7.8-14.47-15.22-29.16-23.68-43.24-5.14-8.55-11.96-16.04-21.78-19.87-7.48-2.92-14.92-5.92-22.38-8.88-.3.47-.59.93-.89,1.4,9.52,20.02,27.48,33.79,40.61,52.99-12.6-5.45-23.04-11.71-31.8-20.14-10.54-10.15-20.29-21.11-30.43-31.69-1.35-1.4-2.95-2.56-4.43-3.84-.43.38-.86.76-1.29,1.15,7.81,13.03,15.63,26.05,23.58,39.31-21.72-7.36-38.61-21.04-51.75-39.81-.47.33-.94.67-1.4,1,4.18,9.79,8.37,19.58,12.69,29.69-18.98-3.52-30.81-16.66-42.58-29.87-.36.3-.73.6-1.09.9,1.82,6.77,3.64,13.54,5.45,20.3-.5.44-1,.88-1.5,1.32-6.52-4.71-13.22-9.2-19.51-14.21-6.22-4.95-12.02-10.41-16.79-14.59,1,4.37,2.43,10.64,3.98,17.47-21.43-5.96-28.51-21.81-32.58-40.64,15.17,10.48,31.02,18.29,49.73,23.18-3.22-6.3-5.77-11.27-8.93-17.45,13.18,7.53,24.24,16.29,39.66,15.23-1-2.54-1.82-4.48-2.53-6.45-.73-2.01-1.36-4.05-2.16-6.47,11.53,7.66,22.84,13.42,37.33,12.47-1.94-4.9-3.58-9.05-5.52-13.96,9.91,6.99,20.16,10.96,31.91,10.89-15.46-9.78-30.92-19.56-46.38-29.35-.42.41-.84.82-1.25,1.24.35,2.54.71,5.08,1.11,8.01-11.42.25-21.27-3.58-30.93-10.2v11.5c-11.53.08-18.86-8.32-28.81-14.05.36,4.25.62,7.23.86,10.16-14.78,4.11-52.94-16.97-59.47-32.92,17.22,5.28,34.6,7.47,52.95,7.83-2.83-8.89-11-9.58-17.79-14.58,15.98-1.2,30.52-2.29,44.96-3.38-9.89-12.55-56.17-19.2-72.47-9.83,8.45,1.13,16.34,2.19,24.23,3.25-11.95,5.95-23.98,4.88-36.94,2.53,10.3-11.73,23.11-16.9,36.74-20.99-7.71-.61-15.44-1.64-22.79-.39-15.1,2.57-27.26,11-37.87,21.83-3.04,3.1-2.57,4.7,1.07,7.16,10.14,6.84,21.27,12.21,29.35,22.09,15.48,18.94,19.32,50.21-1.32,71.05-14.89,15.04-32.85,24.1-53.16,29.05-1.39.34-2.76.8-4.13,1.21,14.71,2.63,27.6-2.21,39.81-8.89,17.57-9.61,35.98-18.46,44.68-38.87,11.51,15.01,26.37,24.29,45.38,28.79-.52-3.05-.81-4.76-1.28-7.55,4.8,3.73,8.7,7.08,12.93,9.95,3.96,2.68,8.04,5.44,12.47,7.08,6.23,2.31,8.03.94,9.54-5.48,12.45,6.81,24.71,14,39.29,17.82v-10.39c13.54,9.28,26.72,17.73,43.43,19.06-.56-4.18-1.03-7.74-1.64-12.35,17.17,13.65,35.81,22.17,56.74,27.83ZM224.05,81c-2.7,6.4-4.8,11.37-7.34,17.37,18.13-4.41,33.72-12.21,48.24-23.05-5.77,25.6-15.02,37.44-32.14,40.62,1.48-6.23,2.88-12.15,4.28-18.06-11.17,12.57-22.2,24.64-39.8,28.68,2.38-6.78,4.49-12.81,6.6-18.83-.54-.29-1.07-.59-1.61-.88-11.93,12.95-24.63,24.75-42.89,29.44,4.25-10.36,8.28-20.2,12.31-30.04-.48-.37-.95-.75-1.43-1.12-13.58,17.51-29.43,31.95-51.87,39.44,8.64-13.5,17.02-26.01,21.88-40.47-19.3,20.82-37.07,43.23-65.57,55.25,12.38-19.69,31.16-32.7,40.99-54.58-8.76,3.53-16.31,6.39-23.72,9.59-9.44,4.08-16.94,10.6-22.19,19.43-6.29,10.58-12.42,21.26-18.27,32.08-2.63,4.86-4.41,10.18-7.11,16.55,22.22-7.48,42.07-16.31,59.49-30.96-1.3,5.13-2.45,9.65-3.71,14.62,17.01-2.22,30.91-9.46,43.98-20.78v10.65c15.21-1.76,27.28-9.8,39.93-16.44,1.83,6.43,3.4,7.6,9.46,5.79,3.42-1.03,6.7-2.95,9.66-5.01,5.22-3.63,10.15-7.68,15.85-12.06-.42,2.62-.66,4.16-1.14,7.2,18.16-5.49,32.92-13.98,44.12-29.05,8.24,16.64,21.45,27.92,37.47,36.26,15.89,8.28,32.15,14.97,51.38,13.06-.88-.8-1.08-1.13-1.33-1.18-1.63-.35-3.28-.58-4.9-.96-20.58-4.86-39.33-12.82-54.14-28.86-18.97-20.53-19.91-51.68-.6-71.86,6.45-6.75,14.86-11.64,22.47-17.26,3.26-2.41,6.76-4.52,10.17-6.78-15.47-20.73-48.34-33.96-64.17-25.25,13.29,5.01,27.32,7.63,35.54,20.4-12.57,2.53-24.48,1.84-36.24-1.48-.03-.46-.07-.92-.1-1.38,7.97-.92,15.94-1.85,23.91-2.77-22.04-8.98-63.91-2.73-71.17,9.5,14.33,1.08,28.68,2.16,43.03,3.25-4.23,3.82-8.46,6.09-12.38,8.79-1.1.76-1.33,2.79-1.96,4.24,1.28.53,2.6,1.6,3.83,1.5,8.78-.68,17.59-1.21,26.28-2.55,7.51-1.16,14.87-3.31,23.4-5.27-15.19,17.82-33.07,29.34-54.75,34.57-6.92,1.67-7.74.39-7.18-6.9.06-.75,0-1.52,0-3.26-9.2,5.81-17.53,11.81-28.05,13.17.26-4.05.49-7.69.77-12.04-6.04,3.03-10.8,6.13-16.01,7.83-5.21,1.7-10.87,1.99-16.57,2.95.66-3.69,1.12-6.28,1.58-8.87-.5-.38-.99-.75-1.49-1.13-15.52,9.82-31.03,19.63-46.55,29.45.23.42.45.83.68,1.25,11.56-1.41,22.28-5.23,32.34-12.64-2.07,5.21-3.78,9.53-5.71,14.39,14.59,1,25.53-5.42,36.98-11.94-1.61,3.9-3.23,7.8-5.28,12.76,15.65-.21,27.53-7.94,40.75-16.35ZM33.02,211.45c-9.94,18.44-19.4,37.14-28.94,55.8-1.61,3.15-2.62,6.61-4.07,10.35,23.12-2.68,37.48-18.72,53.88-31.61-.11,2.62-.85,4.82-1.16,7.07-.25,1.87,0,3.81.04,5.72,2.03-.38,4.41-.2,6.01-1.23,5.31-3.41,10.53-7.03,15.45-10.99,7.64-6.15,15-12.65,22.39-18.92-1.28,5.25-2.54,10.45-3.81,15.65.46.29.92.58,1.39.86,15.46-5.89,27.94-16.21,40.13-28.62-1.17,5.32-2.11,9.63-3.21,14.62,17.08-2.88,26.34-15.59,36.77-27.17.39,1.87.72,3.16.93,4.46,1,6.2,2.12,6.87,6.77,2.81,7.01-6.12,13.61-12.71,20.39-19.11.98-.93,1.96-1.85,3.15-2.98,1.1,3.27,1.98,5.85,2.94,8.69,10.78-3.32,17.34-11.37,24.76-19.12.21,3.85.36,6.75.59,10.87,10.4-5.06,17.51-12.47,24.47-20.33.46,2.82.86,5.21,1.25,7.58,10.7-1.63,26.64-21.05,26.77-32.26-6.3,4.73-12.53,9.41-18.99,14.25v-27.75c-3.78,7.37-6.46,13.63-10.07,19.32-3.49,5.52-7.93,10.44-11.95,15.62-.59-7.21,2.68-13.37.09-20.29-6.96,10.76-14.99,20.21-25.53,27.37.76-7.94,1.5-15.63,2.24-23.32l-1.85-.39c-9.13,14.01-17.76,28.43-31.71,39.75,4.06-11.29,8.81-21.55,9-32.95-13.06,18.99-26.48,37.37-44.44,51.73-.71-.42-1.43-.84-2.14-1.26,5.72-14.16,11.45-28.31,17.17-42.47-.58-.31-1.16-.63-1.73-.94-12.23,19.66-26.24,37.74-45.61,52.94,6.18-15.95,11.83-30.5,17.47-45.06-.63-.37-1.27-.75-1.9-1.12-16.55,23.64-35.46,44.92-60.31,62.33,7.69-18.02,14.82-34.72,21.95-51.42l-1.67-.95c-18.44,24.02-32.93,51.41-57.75,69.99-.46-.3-.91-.59-1.37-.89,10.68-19.95,21.36-39.9,32.05-59.85-12.97,4.3-23.49,11.47-29.83,23.23ZM559.81,197.12c.69-3.18,1.25-5.8,1.88-8.69,9.53,9.07,17.62,18.78,29.16,25.43,1.07-4.26,1.88-7.53,2.64-10.54,4.98,5.5,9.64,11.37,15.06,16.43,5.52,5.15,11.88,9.31,20.39,10.57-.57-4.87-1.06-9-1.65-14.07,12.01,12.07,24.22,22.18,40.88,28.44-1.65-6.67-2.93-11.86-4.22-17.08,13.78,11.84,26.94,24.69,43.82,32.25.46-.31.92-.62,1.37-.93-.74-4.1-1.49-8.2-2.43-13.42,3.79,3.17,7.01,5.5,9.79,8.25,11.36,11.24,24.44,19.43,40.03,23.37,1.13.29,2.34.29,3.72.45-.17-1.15-.12-1.7-.33-2.12-10.3-20.68-20.35-41.48-31.04-61.96-6.54-12.52-17.33-20.57-30.98-25.21,9.61,20.51,22.79,39.17,30.48,60.82-7.78-6.16-15.67-12.26-21.66-19.86-11.53-14.63-21.97-30.12-32.92-45.21-1.47-2.02-3.25-3.82-4.89-5.72-.62.37-1.23.75-1.85,1.12,7.82,16.88,15.64,33.76,24.08,52-24.58-17.59-43.2-39.24-61.2-61.5-.46.19-.93.38-1.39.57,6.05,14.5,12.1,29.01,18.65,44.69-20.84-13.27-31.79-33.44-45.59-51.26,1.57,15.05,10.73,27.36,14.18,41.96-3.19-1.02-6.06-2.24-8.3-4.19-12.95-11.23-22.79-25.07-32.37-39.12-1.51-2.21-3.21-4.28-4.83-6.42-.61.29-1.22.58-1.83.86,3.1,9.83,6.19,19.66,9.65,30.63-13.91-11.12-22.09-25.15-30.51-38.98-.61.19-1.23.37-1.84.56.69,7.43,1.39,14.87,2.12,22.72-10.66-7.1-18.46-16.64-25.42-27.01-.57.23-1.14.45-1.72.68.93,6.25,1.86,12.5,2.94,19.77-11.3-10.5-18.16-22.78-23.44-36.15l-1.43.59c.68,8.93,1.36,17.87,2.12,27.96-7.03-4.96-13.17-9.28-20.53-14.47,1.06,3.51,1.2,6.19,2.53,8.01,5.28,7.2,10.72,14.3,16.57,21.04,1.66,1.91,4.9,2.45,7.41,3.62.8-2.31,1.59-4.63,2.21-6.44,4.93,4.47,10.12,9.56,15.75,14.11,2.27,1.84,5.49,2.5,8.27,3.7.66-2.76,1.32-5.52,2.06-8.58,7.13,7.26,12.97,16.64,24.6,18.33ZM431.09,97.97c-.5.32-.7.51-.77.48-8.52-4.25-17.14-4.35-26.28-1.75-5.14,1.46-10.09-.91-14.49-3.99-1.95-1.37-4.22-2.28-6.67-2.78,4.22,4.92,8.9,9.04,15.78,9.37,3.32.16,6.67-.13,9.99.1,1.63.11,3.2.96,5.11,1.57-6.85,7.25-24.65,9.2-34.32.19.08,9.22,10.59,10.61,13.63,17.76-10.83,3.47-18.82-.45-25.76-7.78,1.51,3.9,3.03,7.79,4.51,11.7,1.45,3.83-.3,6.01-3.83,7.27-4.66,1.67-10.09.5-13.15-3.03,2.5-1.64,7.73,1.04,7.72-4.04,0-3.29-1.44-6.59-3.14-9.79-.72,4.65-.34,9.26-5.24,11.74-4.36,2.21-8.52,1.38-13.07-.39,8.58-4.51,8.86-5.13,6.61-14.5-1.64-6.84.76-11.29,8.91-15.77,3.44-1.89,4.65-3.75,1-6.78-3.03,2.73-6.33,5.22-9.03,8.24-3.49,3.9-5.85,8.38-5.26,14.04.15,1.44-.96,3.51-2.15,4.39-.62.45-3.2-.7-4.01-1.78-2.02-2.71-3.54-5.81-5.17-8.59-2.93,2.49-2.68,4.16,2.53,9.63-5.9,1.06-11.43-.97-13.45-5.89-.92-2.24-.74-5.72.42-7.8,1.21-2.16,2.97-5.28,7.1-3.74,2.87,1.08,7.15-2.18,8.49-5.82-5.17-1.37-12.94,2.83-14.92-7.9-1.4,3.26-2.35,5.48-3.31,7.71-4.18-1.29-4.43-1.42-2.83-5.05,2.36-5.36,3.08-10.44-.46-15.64-.47-.68.21-2.86,1.03-3.55,1.47-1.24,3.45-1.87,5.11-2.7,7.2,6.83,15.23,3.52,22.95,3.05.08-.48.16-.96.24-1.45-3.17-.49-6.34-.97-9.51-1.46-.26-.38-.52-.76-.77-1.14,7.6-4.6,15.2-9.19,22.75-13.75-3.72.97-7.74,2.02-11.52,3.01,1.47-5.14,8.61-8.36,15.52-6.37,3.84,1.11,7.5,2.86,11.37,3.79,3.36.81,6.91.88,10.53.25-2.7-.78-5.39-1.55-8.81-2.53,10.44-7.87,31.92-7.54,43.81.28-2.71,1.27-5.1,2.39-8.26,3.87,2.37.84,3.99,1.42,5.6,1.99-.05.33-.1.65-.15.98h-13.96c-.06.27-.11.55-.17.82,1.21.63,2.42,1.26,3.63,1.89,0,.27-.02.53-.03.8h-7.57c5.92,4.49,11.22,3.32,16.7,1.64,3.77-1.15,7.89-2.99,11.49-2.38,3.89.66,8.13,3.1,10.83,6.04,5.11,5.56,9.23,12.03,13.77,18.12-.31.45-.62.9-.93,1.35-1.56-.41-3.3-.51-4.65-1.28-3.76-2.14-7.37-4.53-11.01-6.87-5.04-3.24-8.47-3.86-14.96-2.64,4.24,1.83,8.55,3.7,12.86,5.56-.17.7-.35,1.4-.52,2.11-4.16,0-8.34.33-12.46-.09-4.15-.42-8.23-1.58-12.33-2.41-.26.53-.51,1.07-.77,1.6,2.94,2.09,5.89,4.18,9.09,6.46-7.01,3.23-13.03,1.2-18.9-2.53,4.53,8.77,12.31,10.63,20.82,10,7.36-.55,12.4,1.11,14.72,6.2ZM382.38,71.82c.48-1.03,1.38-2.53,1.2-2.68-1.94-1.55-3.97-3.89-6.14-4.08-4.05-.36-8.21.56-13.57,1.07,4.3.24,7.35.41,10.36.58-.38,2.81-.67,5-.99,7.39-1.32.3-2.63.59-3.95.89.05.24.09.47.14.71,5.3-.7,10.6-1.4,16.92-2.23-1.91-.79-2.89-1.19-3.97-1.64ZM329.92,77.71c.06-.19.12-.37.18-.56-1.57-.45-3.14-.91-4.88-1.41,2.89-6.68,7.56-2.21,11.63-2.45-6.21-5.02-11.94-3.44-14.15,4.06,2.51.12,4.87.24,7.22.35ZM235.31.82c-15.91-1.52-31.61-.49-45.28,8.48-12.08,7.92-23.99,16.4-34.69,26.06-20.98,18.95-41.09,38.87-61.46,58.5-1.72,1.65-2.67,4.1-3.97,6.18,2.72.5,4.58.33,6.12-.47,7.37-3.8,15.28-6.93,21.83-11.86,14.62-11.01,28.45-23.05,42.75-34.48,17.82-14.24,35.41-28.91,56.23-38.73,9.52-4.49,19.48-8.05,30.15-12.41-4.34-.48-8.01-.92-11.68-1.28ZM518.81,3.47c13.94,3.84,26.53,10.56,38.67,18.19,25.6,16.08,48.06,36.2,71.32,55.3,8.68,7.12,18.33,13.12,27.87,19.11,3.9,2.45,8.67,3.5,13.04,5.19.4-.51.79-1.02,1.19-1.53-1.24-1.98-2.18-4.23-3.76-5.88-5.52-5.76-11.41-11.17-16.91-16.96-20.91-22-43.4-42.21-67.85-60.22-19.79-14.58-41.67-19.89-66.53-14.79,1.31.71,2.08,1.34,2.95,1.58ZM629.91,239.83c-1.07-.12-2.14-.2-3.2-.38-16.99-2.89-34.49-4.11-50.85-9.08-24.45-7.43-48.09-17.53-72.1-26.43-28.74-10.64-57.93-19.69-88.37-24.04-3.73-.53-7.55-.43-11.33-.63,1.11,1.62,2.3,2.12,3.53,2.52,17.7,5.77,35.52,11.19,53.08,17.34,35.44,12.43,70.59,25.69,106.16,37.72,17.69,5.98,36.21,8.74,55.06,6.87,2.82-.28,5.55-1.42,8.33-2.17-.1-.58-.21-1.16-.31-1.73ZM129.97,241.55c2.53.72,5.01,1.69,7.58,2.11,12.57,2.06,24.88-.44,37.14-2.6,25.03-4.41,48.42-14.22,72.24-22.6,33.56-11.81,67.14-23.57,100.72-35.33,2.85-1,5.76-1.84,8.63-2.75l-.32-1.3c-4.88.59-9.79.98-14.64,1.8-35.09,5.95-68.57,17.42-101.73,29.94-22.54,8.51-44.6,18.52-68.46,22.99-13.49,2.53-27.11,4.37-40.67,6.52-.17.41-.33.82-.5,1.22ZM204.21,761.42c-2.61,4.22-5.22,8.43-7.94,12.83,1.05,1.4,2.01,2.68,3.13,4.17-.88,1.2-1.72,2.35-2.73,3.72-5.17-3.61-10.11-6.95-14.89-10.51-.8-.59-1.54-2.32-1.22-3.08.32-.79,1.97-1.02,3.02-1.54,1.29-.64,3.06-.98,3.75-2.03,6.83-10.43,13.48-20.99,20.31-31.7-2.41-2.18-4.99-4.36-.36-7.27,6.54,4.27,13.38,8.61,20.09,13.15,6.29,4.26,10.97,9.7,8.89,17.9-1.93,7.62-7.79,10.75-16.41,10.97-.5,9.33-.99,18.47-1.52,28.4-3.59-2.34-7.34-4.61-10.84-7.22-.76-.57-.89-2.39-.8-3.6.46-5.97,1.32-11.92,1.55-17.9.08-2.16-1.18-4.37-1.84-6.55-.72.09-1.45.18-2.17.27ZM218.09,740.43c-3.46,5.15-6.93,10.32-10.4,15.49,7.73,5.5,11.76,5.23,15.75-.84,4.27-6.49,3.24-9.47-5.35-14.65ZM532.87,794.7c.61,1.69,1.06,2.91,1.58,4.34-6.21,3.1-12.26,6.12-18.55,9.26-.77-1.66-1.38-2.96-2.11-4.54,3.69-1.52,3.42-3.85,1.77-6.7-5.49-9.52-10.75-19.17-16.41-28.58-.84-1.4-3.37-1.78-5.54-2.13-1.64-1.4-2.99-3.27.2-4.99,6.73-3.64,13.32-7.59,20.19-10.94,3.06-1.49,6.67-2.59,10.02-2.58,9.86,0,15.56,9.69,11.49,18.88-.6,1.34-1.37,2.61-2.26,4.3,8.15,5.01,16.25,9.98,24.84,15.26-3.92,2.27-6.79,4.33-9.98,5.6-1.46.58-3.87.12-5.28-.77-5.05-3.22-9.74-7.01-14.8-10.2-1.86-1.17-4.39-1.26-6.62-1.84-.28.56-.57,1.12-.85,1.68,2.49,4.79,4.99,9.58,7.55,14.5,1.56-.18,3-.34,4.76-.55ZM517.47,775c4.81-1.89,9.09-4.41,8.27-9.65-.49-3.12-2.93-6.75-5.58-8.51-4.13-2.74-7.65.56-11,3.26,2.86,5.13,5.59,10.02,8.32,14.9ZM473,799.15c4.8-.34,9.29-5.89,13.3,1.08.29.5,2.3.5,3.14.04.69-.37,1.26-1.85,1.11-2.69-.5-2.77-1.36-5.48-2.09-8.21-.5-1.88-1-3.77-1.53-5.77-1.89.38-3.3.66-4.6.92-.73,6.28-3.12,8.05-11.29,8.54-1.54-5.28-3.09-10.61-4.66-16.02,1.68-.6,2.95-.99,4.17-1.49,4.57-1.87,8.81-2.94,12.37,2.16.64.91,3.45.3,5.95.43-1.82-5.12-3.18-8.96-4.62-13.02-12.34,4.01-24.14,7.85-36.3,11.8.29,1.48.57,2.86.85,4.27,1.94-.11,3.5-.2,5.41-.31,3.9,12.59,7.77,24.94,11.47,37.34.26.86-.84,2.07-1.16,3.16-.41,1.39-.68,2.82-1.01,4.24,1.31.12,2.76.64,3.92.28,8.08-2.53,16.11-5.25,24.15-7.92,3.25-1.08,6.5-2.2,9.81-3.33-.86-5.02-1.63-9.52-2.37-13.81-3.94-1.18-4.93.36-5.55,3.72-.5,2.68-1.92,5.93-4,7.4-2.97,2.1-6.92,2.81-11.12,4.35-1.93-6.21-3.55-11.41-5.35-17.17ZM188.86,711.6c.08,1.61.16,3.23.24,4.84.06,1.21.68,2.9.11,3.55-6.49,7.35-12.81,14.89-19.9,21.63-4.37,4.16-9.84,3.32-13.96-.63-3.57-3.42-4.4-9.38-.99-13.68,6.16-7.79,12.82-15.18,19.44-22.93,2.89,2.52,5.42,4.11,7.14-.55-5.47-4.97-10.83-9.84-16.04-14.57-5.18,2.33-1.67,4.91-.69,7.01-6.28,7.38-12.5,14.32-18.3,21.61-5.19,6.52-6.5,13.8-2.2,21.39,7.87,13.88,23.75,15.82,34.58,4.18,5.21-5.6,10.09-11.52,15.35-17.08,1.06-1.12,3.14-1.29,4.79-1.79,1.09-.33,2.25-.47,3.38-.69-.34-1.24-.3-2.89-1.09-3.66-3.22-3.1-6.7-5.94-10.08-8.87-.59.08-1.17.16-1.76.24ZM629.19,646.23c2.7,3.79,4.8,2.43,6.63-.38,11.57,6.8,22.84,13.42,34.15,20.06-.79,1.93-1.34,3.27-2,4.89,1.36.87,2.54,1.62,4.17,2.66,6.76-10.83,13.32-21.34,19.94-31.95-3.67-2.79-7.17-5.45-10.67-8.11-.47.12-.95.24-1.42.36.19,1.73-.15,3.78.66,5.14,2.34,3.93,2.25,7.5-.35,11.16-1.43,2.02-2.78,4.09-4.37,6.43-4.91-3.02-9.64-5.94-14.53-8.95,2.59-3.87,3.62-8.32,9.35-8.39,2.48-.03,3.16-2.37.65-4.12-3.23-2.25-6.56-4.36-9.92-6.58-1.45,5.39-2.84,10.54-4.36,16.18-5.11-3.12-8.98-5.37-12.7-7.85-.88-.59-1.91-2.04-1.76-2.91.96-5.72,6.49-9.92,12.61-10.32,1.42-.09,2.76-1.42,5.05-2.68-5.27-2.6-9.12-4.49-13.27-6.54-6.15,10.99-12.04,21.53-17.83,31.89ZM111.55,652.32c2.22-1.75.96-3.7-1.2-3.75-5.3-.12-6.11-4.16-8.1-7.91,5.57-3.08,10.86-6.01,16.11-8.91,4.1,5.82,7.52,11.15,1.49,17.32-.49.5.56,2.52,1,4.25,4.56-2.94,8.3-5.35,12.06-7.78-5.44-9.59-10.7-18.81-15.9-28.07-1.53-2.72-3.13-4.46-6.08-1.16.6,1.6,1.23,3.26,1.99,5.26-11.64,6.3-23.16,12.56-34.73,18.72-.83.44-2.08.12-3.14.13-1.64.01-3.28,0-5.65,0,6.68,11.79,12.62,22.26,18.71,33,2.55-1.23,5.46-2.46,8.17-4.04,1.03-.6,1.59-2,2.37-3.03-1.12-.61-2.21-1.3-3.38-1.81-2.3-1-5.3-1.31-6.82-2.98-2.59-2.85-4.26-6.54-6.39-9.99,5.15-2.86,9.76-5.42,15.62-8.68,1.25,5.66,2.34,10.64,3.62,16.42,3.53-2.38,7.05-4.48,10.24-6.99ZM433.48,834.81c.49-.12.99-.18,1.47-.31,8.48-2.32,13.42-7.78,13.68-15.11.3-8.49-3.17-12.9-12.69-15.98-3.8-1.23-7.74-2.08-11.43-3.55-4.02-1.61-5.73-6.84-3.85-10.53,1.81-3.55,7.24-4.73,10.93-2.16,1.46,1.02,2.89,2.39,3.74,3.92,1.86,3.33,3.88,2.97,6.68.62-.88-2.92-1.64-5.98-2.77-8.88-.4-1.02-1.61-2.13-2.66-2.41-7.46-1.98-14.57-.68-21.13,3.16-4.29,2.51-6.53,6.49-6.79,11.53-.39,7.69,3.07,12.36,11.57,15.33,4.08,1.43,8.31,2.48,12.25,4.19,4.2,1.83,5.99,6.1,4.4,9.91-1.75,4.17-5.7,5.91-9.42,4.52-3.25-1.21-6.37-4.15-8.32-7.13-2.03-3.1-3.71-3.75-6.95-1.85,2.04,14.83,6.99,18.19,21.29,14.73ZM550.73,734.4c2.84-2.94,3.49-5.24-.31-7.01-5.58,4.58-11.07,9.08-16.78,13.77,1.08,1.41,1.95,2.55,2.99,3.91,3.17-2.83,5.57-1.59,8.47.41,11.51,7.92,23.15,15.65,34.97,23.08,1.46.92,4.53-.01,6.46-.92.82-.38,1.17-3.05.82-4.46-3.62-14.69-7.45-29.32-11.14-43.99-.35-1.38-.79-3.31-.14-4.26,2.32-3.38-.11-4.21-2.24-5.58-4.32,3.71-8.45,7.24-12.39,10.62,1.48,5.44,4.35,3.07,7.7,1.18,2.94,10.46,5.74,20.39,8.8,31.27-9.57-6.33-18.21-12.05-27.22-18.01ZM106.61,591.06c-3.52-7.23-9.03-9.91-16.31-8.66-6.84,1.18-10.75,5.74-12.26,12.28-.94,4.04-1.27,8.21-2.02,12.3-1.02,5.57-6.21,9.75-10.41,8.53-4.48-1.3-7.34-7.78-5.62-12.88.37-1.09,1.15-2.05,1.48-3.14.8-2.66,6.18-4.05,3.19-7.12-1.18-1.21-5.92.67-8.85,1.69-1.34.47-3.32,2.45-3.14,3.4,1.15,6.33,2.24,12.78,4.47,18.77,2.17,5.86,6.55,10.32,13.51,10.07,7.23-.26,12.33-4.44,14.76-10.94,1.77-4.73,2.1-10,3.04-15.04,1.03-5.52,5.25-9.22,9.47-8.25,4.62,1.06,7.22,6.94,5.3,12.24-.5,1.38-1.18,2.86-2.21,3.84-2.34,2.23-1.96,3.87.77,5.58,3.16-2.01,6.36-4.04,10.33-6.56-1.84-5.54-3.06-11.12-5.49-16.11ZM636.65,663.51c-.84-.78-1.65-1.59-2.53-2.32-7.8-6.44-7.89-6.44-15.89-.7-13.61,9.77-16,24.33-5.72,37.73,6.29,8.2,14.57,13.28,25.4,11.77,11.43-1.58,17.59-9.25,20.94-19.61,1.31-4.05.9-8-2.56-10.95-1.38-1.17-3.19-1.82-4.8-2.71-.13,1.92-.83,4.03-.29,5.74,1.65,5.22,1.29,9.88-2.68,13.84-4,3.99-9.12,4.5-13.96,2.67-9.27-3.51-16.06-9.91-19.39-19.5-1.6-4.61-.6-9.41,3.39-11.48,3.62-1.87,8.47-1.38,12.77-1.94,1.82-.24,3.64-.51,5.46-.76-.04-.6-.09-1.2-.13-1.8ZM289.17,819.08c-.89-.5-1.72-2.56-1.41-3.54,3.8-12.03,7.81-24,11.77-35.98,5.91,1.02,8.95,3.92,8.57,9.93-.06.91,1.13,2.27,2.08,2.73.61.29,2.43-.46,2.69-1.13,1.5-3.94,2.69-7.99,4-12.01-14.41-4.94-28.04-9.61-41.91-14.36-1.91,4.46-3.73,8.69-5.6,13.05,1.97,1.84,3.71,3.18,5.78.33,3.23-4.46,7.32-5.31,12.63-2.59-3.73,11.25-7.58,22.56-11.18,33.94-.99,3.14-1.87,5.69-6.14,4.06-.3,1.81-.53,3.19-.8,4.78,6.88,2.31,13.44,4.52,20.06,6.74,1.81-2.48,2.52-4.23-.52-5.95ZM358.09,785.86c-1.91-.21-3.9.41-5.86.65.73,1.71,1.45,3.41,2.36,5.55-3.4,4.67-7.12,9.78-11.25,15.45-2.79-7.11-5.19-13.25-7.04-17.96,1.49-2.71,2.4-4.36,3.65-6.63-7.58-1.12-13.92-2.06-21.68-3.21,1.06,2.58,1.52,4.1,2.29,5.45,1.03,1.81,2.63,3.35,3.43,5.24,2.85,6.74,6.2,13.4,7.92,20.44,1.15,4.72-.05,10.03-.45,15.06-.05.62-1.63,1.6-2.5,1.6-3.79,0-3.84,2.11-3.34,5.04,7.25,1.16,14.25,2.29,20.88,3.35,3.28-4.53-.23-5.38-2.73-6.39,1.35-14.53,11.08-30.53,22.41-37.52.99-.61,1.26-2.37,2.1-4.05-4.03-.85-7.07-1.73-10.18-2.07ZM686.55,624.28c9.82,2.34,12.95.76,16.72-8.68,1.4-3.5,2.31-7.34,2.68-11.09.81-8.3-4.72-15.7-12.43-16.65-5.83-.72-10.56,2.03-14.83,5.82-3.08,2.74-6.14,5.69-9.69,7.66-3.81,2.11-7.27-.33-7.7-4.69-.56-5.75,3.03-9.38,9.68-10.03,1.04-.1,1.99-1.1,2.99-1.68-.68-.97-1.14-2.35-2.07-2.82-2.76-1.4-5.69-2.44-8.38-3.55-2.2,3.55-4.3,6.74-6.2,10.04-4.09,7.05-3.23,16.97,1.76,21.36,5.31,4.68,14.12,4.08,21.04-1.6,2.69-2.21,4.81-5.34,7.79-6.92,2.46-1.3,6.58-2.17,8.53-.94,1.96,1.23,3.19,5.41,2.88,8.09-.84,7.21-4.96,9.95-16.08,11.26,1.39,1.92,2.13,4.15,3.33,4.43ZM157.68,686.47c.74-1.59.95-4.03.27-5.61-4.27-9.91-10.6-17.84-22.14-19.38-12.12-1.61-20.36,4.82-26.59,14.19-8.27,12.44-3.2,30.35,10.06,36.71,6.62,3.18,11.38,1.88,15.86-5.22-2.96-.28-5.37-.69-7.78-.71-8.68-.05-13.96-5.59-12.98-13.8,1.13-9.54,12.37-20.96,21.85-22.21,5.68-.74,11.4,1.78,12.95,7.06.99,3.39.28,7.51-.5,11.12-.69,3.2-.36,5.15,3.68,6.3,1.87-2.89,3.95-5.52,5.33-8.47ZM243.52,808.08c1.01.46,2.54-.24,3.83-.4-.19-1.24-.44-2.47-.54-3.72-.17-2.07-.99-4.48-.25-6.18,3.34-7.61,6.75-15.25,10.94-22.4,2.12-3.6,1.39-10.79,9.03-9.26.1.02.25-.2.65-.53.32-1.07.73-2.41,1.17-3.85-6.31-3.28-12.28-6.38-18.24-9.49-.56.33-1.12.65-1.68.98.62,2.21,1.23,4.43,2.14,7.67-4.84,10.23-10.18,21.68-15.73,33.02-.55,1.13-2.32,1.68-3.56,2.45-1.46.9-2.96,1.74-5.24,3.08,7.02,3.51,12.18,6.22,17.47,8.63ZM612.11,741.95c5.44-4.56,10.89-9.13,16.51-13.84-1.4-1.54-2.36-2.6-3.41-3.76-1.53.99-2.83,1.83-4.24,2.74-8.6-9.21-17.01-18.16-25.32-27.2-.76-.83-.93-2.25-1.26-3.43-.47-1.67-.85-3.36-1.32-5.25-4.81,4.59-8.84,8.3-12.66,12.21-.7.72-.95,2.35-.69,3.38.17.68,2.09,1.69,2.43,1.44,2.93-2.09,4.2.29,5.73,1.91,7.18,7.6,14.27,15.3,21.56,22.79,2.32,2.39,3.44,4.43.32,7,1.11,1.3,2.05,2.41,2.99,3.52-.22-.51-.43-1.01-.65-1.52ZM403.44,118.87c1.64.29,3.27.64,4.92.87,5.52.74,11.04,1.83,16.59,2,3.05.1,6.81-.54,9.07-2.33,2.92-2.31,3.07-12.82.84-15.14-3.63-3.78-8.16-3.17-12.91-2.4,1.58,2.22,2.9,4.05,4.3,6.01-12.65.62-24.53,1.21-36.41,1.79-.06.57-.11,1.15-.17,1.72,6.29,1.54,12.58,3.09,18.87,4.63-.09.37-.17.73-.26,1.1-1.57.22-3.14.44-4.71.67-.04.36-.08.72-.13,1.08ZM394.41,133.7c2.97-5.62,6.98-3.02,10.85-3.11,4.26-.1,8.52-.48,13.02-.75-1.66-6.07-5.55-7.34-9.6-7.13-5.08.26-10.14,1.32-15.14,2.37-1.69.35-3.12,1.79-4.73,2.63-1.78.93-3.55,1.93-5.45,2.53-1.44.46-3.06.34-5.05.52,3.84,3.99,14.41,6.14,16.1,2.93ZM424.89,88.09c1.32,1.32,2.43,3,3.99,3.89,4.72,2.71,9.09,5.49,10.08,11.51.22,1.34,1.24,2.96,2.38,3.64,1.38.82,3.27.79,4.94,1.12.25-1.54,1.24-3.56.62-4.53-3.21-5-6.31-10.27-10.52-14.34-2.24-2.17-6.64-2.12-10.07-3.07l-1.42,1.79ZM450.47,96.96c-.62-3.3-.39-7.13-2.05-9.78-2.51-4.02-6.82-5.8-12.47-4.36,4.19,5.36,8.07,10.3,11.94,15.25.86-.37,1.72-.74,2.58-1.1ZM375.75,121.98c3.98,2.64,7.22,4.79,10.47,6.95-.49-5.48-4.27-7.74-10.47-6.95ZM620.13,435.1c-2.29,18.48-3.84,36.38-6.84,54.04-6.11,36.04-17.76,70.29-36.13,102.02-23.28,40.22-54.22,73.54-91.72,100.93-31.68,23.14-65.97,41.32-102.62,55.11-2.09.79-4.99.8-7.08.02-66.87-25.27-125.02-63.09-169.54-119.85-29.98-38.22-49.71-81.47-58.91-129.15-3.67-19.04-4.94-38.54-7.25-57.84-.19-1.62-.03-3.28-.03-5.28h480.11ZM310.25,611.68c.58-.12,1.09-.38,1.52-.28,10.35,2.44,20.69,4.88,31,7.45.98.25,2.09,1.18,2.57,2.09,3,5.82,8.19,6.21,13.72,5.65,5.85-.59,10.17-3.74,11.9-9.24,1.84-5.85,5-11.77,1.67-18.25-.42-.81.23-2.26.56-3.36,1.81-6.06,3.92-12.03,5.42-18.16,1.04-4.23,3.08-4.65,6.83-3.57,17.09,4.95,34.32,9.44,51.34,14.59,12.7,3.85,22.9-.09,31.79-8.84,8.04-7.9,13.49-17.63,15.47-28.57,2.69-14.92,6.29-29.21,13.28-42.92,5.59-10.97-1.21-21.44-13.37-23.65-22.9-4.17-45.79-8.35-68.69-12.46-29.45-5.28-58.93-10.42-88.37-15.75-9.35-1.69-23.65,6.01-24.82,18.02-1.08,11.08-3.13,22.05-4.54,33.1-.75,5.9-.95,12.89,3.81,16.38,7.52,5.52,6.99,12.14,5.86,19.55-.02.16-.02.33-.02.5-.14,6.35,2.13,9.56,8.18,11.36,6.06,1.8,12.16,3.45,18.21,5.26,5.65,1.69,11.27,3.52,16.6,5.19-1.61,8.34-3.09,15.94-4.59,23.7-1.03.08-2.06.41-2.97.19-10.16-2.42-20.33-4.85-30.43-7.53-.92-.24-1.91-2.18-1.97-3.38-.18-3.31-.11-6.68.27-9.98.6-5.19-1.88-7.5-6.7-7.71-5.82-.25-11.66-.19-17.48-.45-3.66-.16-5.78,1.42-6.22,4.96-.53,4.29-.95,8.6-1.17,12.91-.89,17.63-1.79,35.26-2.47,52.89-.21,5.3,1.57,6.94,6.72,7.07,6.16.16,12.33.09,18.49.23,4.94.11,7.46-2.22,7.68-7.11.31-6.62.61-13.24.91-19.91ZM264.16,361.84h-13.18v29.51c-6.03-8.35-11.57-15.96-17.04-23.63-4.92-6.9-8.25-8.03-16.49-5.49v51.95h13.39v-29.28c5.82,8,11.79,15.03,16.4,22.87,4.23,7.21,9.87,7.62,16.93,6.19v-52.12ZM276.28,414.41v-53.64c11.09.72,22.03.84,32.78,2.31,8.12,1.11,13.76,6.78,14.69,14.96.81,7.11.92,14.76-.84,21.61-2.84,11.01-12.59,13.9-22.62,14.65-7.76.58-15.61.12-24.01.12ZM290.81,372.82v29.86c6.42-.6,13.86,2.1,17.46-4.78,3.37-6.44,3.55-14.18-.46-20.52-3.82-6.03-10.72-4.44-16.99-4.56ZM613.27,414.26v-52.53h-14.02v19.21h-19.04v-19.25h-13.67v52.39h14.15v-20.97h18.77v21.15h13.81ZM420.7,387.99c-2.61-3.84-3.17-6.58.73-10.01,4.22-3.72,7.81-8.17,11.63-12.34,1.01-1.1,1.88-2.32,3.4-4.23-4.04,0-6.88.25-9.67-.06-4.36-.48-7.42.87-10.18,4.47-3.84,5.02-8.35,9.53-13.56,15.35v-19.53h-13.96v52.48h13.55c2.52-6.65-2.7-14.63,4.61-20.21,4.01,6.12,7.7,11.84,11.51,17.48.79,1.16,1.97,2.82,3.07,2.89,4.87.31,9.78.14,15.83.14-6.05-9.49-11.29-18.1-16.95-26.42ZM382.69,414.48c-5.05,0-9.04.21-12.98-.12-1.24-.1-2.83-1.44-3.42-2.62-1.16-2.35-1.74-4.99-2.73-8.01-5.03,0-10.16-.17-15.26.13-1.15.07-2.71,1.59-3.22,2.8-3.33,7.82-3.25,7.85-11.76,7.82-1.3,0-2.61,0-4.29,0,.1-1.29-.01-2.26.28-3.09,5.26-15.04,10.66-30.02,15.79-45.11,1.25-3.67,2.9-5.22,7.05-5.1,11.47.33,11.52.09,15.55,11.29,4.93,13.7,9.79,27.42,14.99,42.02ZM354.94,375.77c-2.05,6.32-3.82,11.74-5.66,17.41h11.24c-1.85-5.76-3.58-11.18-5.58-17.41ZM481.3,372.46v-10.7h-36.93v52.45h37.73v-11.92h-23.1v-9.76h18.28v-10.43c-4.4,0-8.39,0-12.38,0q-6.51-.01-6.23-6.69c.03-.8.25-1.59.47-2.95h22.15ZM543.41,372.63h15.27v-10.89h-45.42v11.13h16v41.4h14.15v-41.64ZM183.09,414.18v-12.68h-22.95v-39.75h-13.9v52.43h36.85ZM191.22,367.29c0,11.47.01,22.93.01,34.4q0,13.45,13.48,12.65c.29-.02.56-.29,1.1-.59v-52.1h-14.6c0,2.07,0,3.85,0,5.63ZM506.7,361.73h-13.72v52.55h13.72v-52.55ZM417.69,548.42c1.18-19.07,4.77-33.21,15.8-44.43,15.1-15.36,35.97-11.4,44.6,8.35,8.8,20.14,2.73,49.07-13.46,64.21-13.73,12.83-33.15,9.65-41.06-7.48-3.47-7.51-4.63-16.09-5.87-20.65ZM422.93,542.52c-.23,10.58,1.42,20.55,8.8,28.83,6.68,7.49,16.45,9.43,25.33,4.75,7.85-4.13,12.01-11.34,15.04-19.19,6.12-15.84,7.98-31.67-2.44-46.61-9.6-13.76-24.46-14.11-34.96-1.01-7.77,9.69-11.4,20.89-11.77,33.23ZM471.41,539.07c1.07-14.23-4.03-29.67-15.39-32.63,16.02,18.99,10.09,52.09-7.71,66.05,11.35-.53,21.75-15.72,23.09-33.42Z"/>
  </g>
</svg>